<svg version="1.1" xmlns="http://www.w3.org/2000/svg" viewBox="0 0 265.33331298828125 260.0000305175781" width="265.33331298828125" height="260.0000305175781">
  <!-- svg-source:excalidraw -->
  
  <defs>
    <style>
      @font-face {
        font-family: "Virgil";
        src: url("https://excalidraw.com/Virgil.woff2");
      }
      @font-face {
        font-family: "Cascadia";
        src: url("https://excalidraw.com/Cascadia.woff2");
      }
    </style>
  </defs>
  <rect x="0" y="0" width="265.33331298828125" height="260.0000305175781" fill="#ffffff"></rect><g stroke-linecap="round" transform="translate(10 10) rotate(0 122.66665649414062 120.00001525878906)"><path d="M-3.51 1.46 L245.21 -3.97 L246.88 239.71 L-0.91 237.26" stroke="none" stroke-width="0" fill="#ced4da"></path><path d="M-0.97 1.06 C93.25 1.97, 187.13 -0.13, 248.23 0.77 M0.23 0.2 C91.48 -1.36, 183.28 -2.28, 245.72 -0.33 M243.87 -0.38 C245.1 64.47, 250.82 123, 242.51 240.55 M245.95 1.47 C245.54 63.12, 244.92 125.06, 244.02 240.69 M248.18 241.06 C184.77 238.16, 132.32 238.21, 3.1 240.33 M245.47 240.56 C197.39 241.38, 145.24 241.8, -0.04 241.28 M0.33 237.88 C-0.94 166.91, -4.5 100.4, -2.8 -2.6 M-1.66 240.99 C-0.85 145.94, 1.14 54.53, 0.76 1.55" stroke="#000000" stroke-width="1" fill="none"></path></g><g transform="translate(39.33331298828125 87.66665649414062) rotate(0 89.83334899902343 29.166671752929688)"><text x="0" y="40.33334350585936" font-family="Virgil, Segoe UI Emoji" font-size="46.6666748046875px" fill="#000000" text-anchor="start" style="white-space: pre;" direction="ltr">oeyoews</text></g></svg>